<svg width="54" height="50" viewBox="0 0 54 50" fill="none" xmlns="http://www.w3.org/2000/svg">
<rect x="0.178711" width="53.4826" height="50" rx="25" fill="#F4F5F7"/>
<path d="M36.1787 37H27.1787C26.9135 37 26.6591 36.8946 26.4716 36.7071C26.2841 36.5196 26.1787 36.2652 26.1787 36V34C26.1787 33.7348 26.2841 33.4804 26.4716 33.2929C26.6591 33.1054 26.9135 33 27.1787 33H36.1787C36.4439 33 36.6983 33.1054 36.8858 33.2929C37.0734 33.4804 37.1787 33.7348 37.1787 34V36C37.1787 36.2652 37.0734 36.5196 36.8858 36.7071C36.6983 36.8946 36.4439 37 36.1787 37Z" fill="#D6B1FF"/>
<path d="M36.1787 13H18.1787C17.9135 13 17.6591 13.1054 17.4716 13.2929C17.2841 13.4804 17.1787 13.7348 17.1787 14V16C17.1787 16.2652 17.2841 16.5196 17.4716 16.7071C17.6591 16.8946 17.9135 17 18.1787 17H36.1787C36.4439 17 36.6983 16.8946 36.8858 16.7071C37.0734 16.5196 37.1787 16.2652 37.1787 16V14C37.1787 13.7348 37.0734 13.4804 36.8858 13.2929C36.6983 13.1054 36.4439 13 36.1787 13Z" fill="#11B5E4"/>
<path d="M36.1787 19H18.1787C17.9135 19 17.6591 19.1054 17.4716 19.2929C17.2841 19.4804 17.1787 19.7348 17.1787 20V30C17.1787 30.2652 17.2841 30.5196 17.4716 30.7071C17.6591 30.8946 17.9135 31 18.1787 31H36.1787C36.4439 31 36.6983 30.8946 36.8858 30.7071C37.0734 30.5196 37.1787 30.2652 37.1787 30V20C37.1787 19.7348 37.0734 19.4804 36.8858 19.2929C36.6983 19.1054 36.4439 19 36.1787 19Z" fill="#11B5E4"/>
</svg>
