<svg width="54" height="50" viewBox="0 0 54 50" fill="none" xmlns="http://www.w3.org/2000/svg">
<rect x="0.178711" width="53.4826" height="50" rx="25" fill="#F4F5F7"/>
<g clip-path="url(#clip0_1386_472)">
<path d="M33.1787 23H39.1787L36.1787 19L33.1787 23ZM33.1787 27H39.1787L36.1787 31L33.1787 27Z" fill="#D6B1FF"/>
<path d="M16.1787 13H22.1787V37H16.1787C15.9135 37 15.6591 36.8946 15.4716 36.7071C15.2841 36.5196 15.1787 36.2652 15.1787 36V14C15.1787 13.7348 15.2841 13.4804 15.4716 13.2929C15.6591 13.1054 15.9135 13 16.1787 13Z" fill="#02897A"/>
<path d="M24.1787 13H30.1787C30.4439 13 30.6983 13.1054 30.8858 13.2929C31.0734 13.4804 31.1787 13.7348 31.1787 14V36C31.1787 36.2652 31.0734 36.5196 30.8858 36.7071C30.6983 36.8946 30.4439 37 30.1787 37H24.1787V13Z" fill="#02897A"/>
</g>
<defs>
<clipPath id="clip0_1386_472">
<rect width="24" height="24" fill="white" transform="translate(15.1787 13)"/>
</clipPath>
</defs>
</svg>
