<svg width="54" height="50" viewBox="0 0 54 50" fill="none" xmlns="http://www.w3.org/2000/svg">
<rect x="0.387695" width="53.4826" height="50" rx="25" fill="#F4F5F7"/>
<path d="M20.3877 14H17.3877C17.1225 14 16.8681 14.1054 16.6806 14.2929C16.4931 14.4804 16.3877 14.7348 16.3877 15V35C16.3877 35.2652 16.4931 35.5196 16.6806 35.7071C16.8681 35.8946 17.1225 36 17.3877 36H20.3877V14Z" fill="#D6B1FF"/>
<path d="M22.3877 36H32.3877V14H22.3877V36ZM27.3877 32C27.1225 32 26.8681 31.8946 26.6806 31.7071C26.4931 31.5196 26.3877 31.2652 26.3877 31C26.3877 30.7348 26.4931 30.4804 26.6806 30.2929C26.8681 30.1054 27.1225 30 27.3877 30C27.6529 30 27.9073 30.1054 28.0948 30.2929C28.2823 30.4804 28.3877 30.7348 28.3877 31C28.3877 31.2652 28.2823 31.5196 28.0948 31.7071C27.9073 31.8946 27.6529 32 27.3877 32ZM27.3877 18C27.6529 18 27.9073 18.1054 28.0948 18.2929C28.2823 18.4804 28.3877 18.7348 28.3877 19C28.3877 19.2652 28.2823 19.5196 28.0948 19.7071C27.9073 19.8946 27.6529 20 27.3877 20C27.1225 20 26.8681 19.8946 26.6806 19.7071C26.4931 19.5196 26.3877 19.2652 26.3877 19C26.3877 18.7348 26.4931 18.4804 26.6806 18.2929C26.8681 18.1054 27.1225 18 27.3877 18ZM27.3877 24C27.6529 24 27.9073 24.1054 28.0948 24.2929C28.2823 24.4804 28.3877 24.7348 28.3877 25C28.3877 25.2652 28.2823 25.5196 28.0948 25.7071C27.9073 25.8946 27.6529 26 27.3877 26C27.1225 26 26.8681 25.8946 26.6806 25.7071C26.4931 25.5196 26.3877 25.2652 26.3877 25C26.3877 24.7348 26.4931 24.4804 26.6806 24.2929C26.8681 24.1054 27.1225 24 27.3877 24Z" fill="#F03E3D"/>
<path d="M37.3877 14H34.3877V36H37.3877C37.6529 36 37.9073 35.8946 38.0948 35.7071C38.2823 35.5196 38.3877 35.2652 38.3877 35V15C38.3877 14.7348 38.2823 14.4804 38.0948 14.2929C37.9073 14.1054 37.6529 14 37.3877 14Z" fill="#F03E3D"/>
</svg>
